inDegrees=no
num_controls=7
num_derivatives=13
num_iterations=86
num_multipliers=7
num_parameters=0
num_slacks=7
num_states=26
objective=0.445954
objective_accelerations=0.056624
objective_balance=0.003054
objective_effort=0.022150
objective_height=0.358617
objective_ligament=0.005510
solver_duration=1178.404795
status=Solve_Succeeded
success=true
DataType=double
version=3
OpenSimVersion=4.5
endheader
time	/jointset/ground_pelvis/pelvis_tilt/value	/jointset/ground_pelvis/pelvis_tx/value	/jointset/ground_pelvis/pelvis_ty/value	/jointset/hip_l/hip_flexion_l/value	/jointset/hip_l/hip_adduction_l/value	/jointset/hip_l/hip_rotation_l/value	/jointset/back/lumbar_extension/value	/jointset/patellofemoral_l/patellar_flexion_l/value	/jointset/knee_l/knee_flexion_l/value	/jointset/knee_l/knee_adduction_l/value	/jointset/knee_l/knee_rotation_l/value	/jointset/ankle_l/ankle_angle_l/value	/jointset/subtalar_l/subtalar_angle_l/value	/jointset/ground_pelvis/pelvis_tilt/speed	/jointset/ground_pelvis/pelvis_tx/speed	/jointset/ground_pelvis/pelvis_ty/speed	/jointset/hip_l/hip_flexion_l/speed	/jointset/hip_l/hip_adduction_l/speed	/jointset/hip_l/hip_rotation_l/speed	/jointset/back/lumbar_extension/speed	/jointset/patellofemoral_l/patellar_flexion_l/speed	/jointset/knee_l/knee_flexion_l/speed	/jointset/knee_l/knee_adduction_l/speed	/jointset/knee_l/knee_rotation_l/speed	/jointset/ankle_l/ankle_angle_l/speed	/jointset/subtalar_l/subtalar_angle_l/speed	/forceset/tau_hip_flexion_l	/forceset/tau_hip_adduction_l	/forceset/tau_hip_rotation_l	/forceset/tau_knee_flexion_l	/forceset/tau_ankle_angle_l	/forceset/tau_subtalar_angle_l	/forceset/tau_lumbar_extension	lambda_cid13_p0	lambda_cid13_p1	lambda_cid13_p2	lambda_cid13_p3	lambda_cid13_p4	lambda_cid13_p5	lambda_cid14_p0	/jointset/ground_pelvis/pelvis_tilt/accel	/jointset/ground_pelvis/pelvis_tx/accel	/jointset/ground_pelvis/pelvis_ty/accel	/jointset/hip_l/hip_flexion_l/accel	/jointset/hip_l/hip_adduction_l/accel	/jointset/hip_l/hip_rotation_l/accel	/jointset/back/lumbar_extension/accel	/jointset/patellofemoral_l/patellar_flexion_l/accel	/jointset/knee_l/knee_flexion_l/accel	/jointset/knee_l/knee_adduction_l/accel	/jointset/knee_l/knee_rotation_l/accel	/jointset/ankle_l/ankle_angle_l/accel	/jointset/subtalar_l/subtalar_angle_l/accel	gamma_cid13_p0	gamma_cid13_p1	gamma_cid13_p2	gamma_cid13_p3	gamma_cid13_p4	gamma_cid13_p5	gamma_cid14_p0
0.5	-0.3129762851890751	-0.02380379147609012	0.7631707287809572	1.060315037665864	-0.4369061029521104	-0.2141306368093978	-0.2525200503036193	0.8238697219087028	0.8238697219086603	-0.1238745777150912	-0.1527318111609841	0.1396244610036397	-0.01514417349554642	-0.6888272181810543	-0.1796904003171204	-0.5208603029764896	2.356048569977033	-0.2092221489570506	0.7371584795887074	-0.12222566612699	2.031656703122295	2.031656703122299	0.1403267120526795	-0.1002956601889309	0.5395030745897795	0.04292246962760874	-0.159532040315834	0.04065829572353722	-0.01116663938934634	-0.2229408199754634	0.05629618509357767	0.02809397660544995	0.1612718025495125	-14.86961583408885	-12.23684202735883	4.629559765917027	-4.025023675952821	-524.1481601692198	-49.66958929487675	-24.20366656036963	0.8040852622672022	0.5464367327173869	-0.4325963579895675	-1.429473146364687	0.7652705769311934	-0.3714239039508345	1.030291470357104	-1.41999888039511	-1.419998880395089	0.2438948004011718	0.1496128397609679	-0.5954575429410592	0.5570964644698538	-5.630679908936285e-07	-3.124674565383362e-07	3.15389899763078e-06	1.884872301933107e-07	-6.695526665446857e-07	-1.401471350468303e-07	-4.619972834564917e-07
0.51	-0.3198223518725338	-0.02557304752686454	0.7579416293403769	1.083799011729305	-0.4389617138303248	-0.206775008856796	-0.2536917377245225	0.8441123712212607	0.8441123712212731	-0.122465176598402	-0.1537262825483585	0.1449886167844427	-0.01468962107608948	-0.6802491637869523	-0.1741350060262406	-0.5248479686339865	2.340373009276499	-0.2019358432010235	0.7339752755460194	-0.1121420416442038	2.01662925469438	2.016629254694373	0.1413929669336731	-0.09856519559808308	0.5332655768163176	0.04792021832877016	-0.1648982559162351	0.0415558089227476	-0.01124126378950871	-0.2255804572560206	0.05505763555610772	0.0283999034713451	0.1654543538087133	-15.44753466926492	-12.2259229818642	4.579165887589494	-3.906732310597002	-527.655352589851	-49.2782751975268	-23.26681299076762	0.9051387335544239	0.5639989067560558	-0.3652404479455438	-1.692665340115644	0.7045527843764808	-0.2909539828303748	0.9928643996381658	-1.580612392703178	-1.580612392704605	0.01397670896985499	0.1903907470028224	-0.6472612913520112	0.4606284949133992	-5.424127199693727e-07	-1.865719363494017e-07	3.172667526293951e-06	2.164667052573113e-07	-6.487661339868511e-07	-5.117151314818034e-08	-4.485017698718241e-07
0.52	-0.3265785433709612	-0.02728596800883466	0.7526759754875582	1.107115016624035	-0.4409456132090946	-0.1994510500102989	-0.2547634956081334	0.8641974471358301	0.8641974471358771	-0.121049915757536	-0.1547023237940928	0.1502885245081486	-0.01418718828522623	-0.6708521811698653	-0.1684232865562588	-0.5281711854240467	2.322454736247237	-0.1948798490674714	0.7308246583672399	-0.1022397586653949	2.000142023517926	2.000142023517911	0.1414986568955249	-0.09660963187698843	0.5266534631707165	0.05249854390889125	-0.1702644715170745	0.04245332212190491	-0.0113158881903328	-0.2282200945365484	0.05381908601866986	0.02870583033720387	0.1696369050674926	-16.02893312301892	-12.21497807908234	4.529435975960039	-3.824496959379463	-531.2412206223519	-48.9502710783342	-22.33224341666629	0.9678709068644343	0.5777017685374695	-0.299706584502333	-1.878015612110345	0.7192082524362367	-0.3649065311690664	0.9940231695618681	-1.711955430102534	-1.711955430102534	0.05178181657295321	0.194632665810375	-0.6703807173692575	0.4732118402616523	-5.197735734907395e-07	2.961550053515415e-08	3.305202562871434e-06	2.743989861505875e-07	-6.33605383441773e-07	6.441703964173572e-08	-4.340027874890527e-07
0.53	-0.3332372799527147	-0.02894129488382577	0.7473804988675851	1.130241628698065	-0.4428591531497074	-0.1921586248124627	-0.2557377163892683	0.8841099894957956	0.8841099894957929	-0.1196366361538881	-0.1556569539713059	0.1555201758637723	-0.01364009281306757	-0.6608047253930331	-0.162645195018114	-0.5308023123078488	2.302564087119368	-0.1877832460953638	0.7275636810626567	-0.09270590469538534	1.982081196510832	1.98208119651083	0.1412040336034379	-0.09426181098767371	0.5195839228593084	0.0569346082549683	-0.1748028300674213	0.04289473813439049	-0.01137480071607053	-0.2317009094672708	0.05320800205260025	0.02883487764396679	0.1730523087190174	-16.42597566619782	-12.15138155083775	4.462043972813895	-3.587756193224125	-534.8293701144281	-48.68371118855734	-21.40255270573876	1.036669013532449	0.5774578248379787	-0.2266669295100809	-2.09021699184781	0.7111508893813485	-0.3215830624625101	0.9178404416965517	-1.895848852974978	-1.895848852972985	-0.06293652102381792	0.2637096516843556	-0.7391361523526332	0.4304939546325089	-4.948380699675768e-07	1.655745669594682e-07	3.350773464895415e-06	3.087175713763473e-07	-6.109111310050052e-07	1.670082119333761e-07	-4.207415053843162e-07
